# xmcd
#
# Track frame offsets:
#	150
#	11793
#	32576
#	47683
#	63372
#	80646
#	102376
#	120294
#	136567
#	163978
#	182304
#
# Disc length: 2731 seconds
#
# Revision: 1
# Processed by: cddbd v1.5.2PL0 Copyright (c) Steve Scherf et al.
# Submitted via: audiograbber 1.83.01
#
DISCID=830aa90b
DTITLE=Trouble - Live In Los Angeles
DYEAR=2009
DGENRE=Rock
TTITLE0=Intro
TTITLE1=R.I.P.
TTITLE2=The Sleeper
TTITLE3=Touch The Sky
TTITLE4=Plastic Greenhead
TTITLE5=The Eye
TTITLE6=Simple Mind Condition
TTITLE7=Mr. White
TTITLE8=End Time
TTITLE9=Trouble Maker
TTITLE10=End of My Daze
EXTD=
EXTT0=
EXTT1=
EXTT2=
EXTT3=
EXTT4=
EXTT5=
EXTT6=
EXTT7=
EXTT8=
EXTT9=
EXTT10=
PLAYORDER=
